<?xml version="1.0" encoding="utf-8"?>
<!DOCTYPE svg PUBLIC "-//W3C//DTD SVG 1.1//EN" "http://www.w3.org/Graphics/SVG/1.1/DTD/svg11.dtd">
<svg version="1.1" baseProfile="full"
 xmlns="http://www.w3.org/2000/svg"
 xmlns:xlink="http://www.w3.org/1999/xlink"
 xmlns:ev="http://www.w3.org/2001/xml-events" 
  height="9px" 
  width="60px" 
>
<path fill="rgb( 51, 51, 51 )"
 d="M59.707,5 C59.707,5 56.429,8.27800000000002 56.429,8.27800000000002 C56.429,8.27800000000002 55.722,7.56999999999999 55.722,7.56999999999999 C55.722,7.56999999999999 58.293,5 58.293,5 C58.293,5 0,5 0,5 C0,5 0,4 0,4 C0,4 58.293,4 58.293,4 C58.293,4 55.722,1.43000000000001 55.722,1.43000000000001 C55.722,1.43000000000001 56.429,0.72199999999998 56.429,0.72199999999998 C56.429,0.72199999999998 59.707,4 59.707,4 C59.707,4 60,4 60,4 C60,4 60,5 60,5 C60,5 59.707,5 59.707,5 Z "/>
</svg>
