<?xml version="1.0" encoding="utf-8"?>
<!DOCTYPE svg PUBLIC "-//W3C//DTD SVG 1.1//EN" "http://www.w3.org/Graphics/SVG/1.1/DTD/svg11.dtd">
<svg version="1.1" baseProfile="full"
 xmlns="http://www.w3.org/2000/svg"
 xmlns:xlink="http://www.w3.org/1999/xlink"
 xmlns:ev="http://www.w3.org/2001/xml-events" 
  height="52px" 
  width="60px" 
>
<path fill="rgb( 51, 51, 51 )"
 d="M23.936,0.64299999999997 C18.374,0.74599999999998 14.822,2.993 13.295,6.48500000000001 C11.84,9.80799999999999 12.166,14.009 13.221,18.353 C12.652,19.016 12.204,19.91 12.365,21.254 C12.541,22.717 12.944,23.759 13.518,24.491 C13.833,24.892 14.25,24.93 14.634,25.124 C14.845,26.369 15.192,27.618 15.713,28.658 C16.013,29.255 16.348,29.811 16.681,30.258 C16.828,30.457 17.046,30.576 17.201,30.741 C17.209,32.21 17.216,33.433 17.09,34.982 C16.703,35.916 15.801,36.671 14.337,37.401 C12.826,38.155 10.856,38.854 8.868,39.709 C6.87900000000002,40.562 4.83100000000002,41.604 3.21199999999999,43.243 C1.59399999999999,44.88 0.45100000000002,47.126 0.27300000000002,50.088 C0.27300000000002,50.088 0.19900000000001,51.354 0.19900000000001,51.354 C0.19900000000001,51.354 1.464,51.354 1.464,51.354 C1.464,51.354 46.705,51.354 46.705,51.354 C46.705,51.354 47.97,51.354 47.97,51.354 C47.97,51.354 47.896,50.088 47.896,50.088 C47.718,47.127 46.568,44.88 44.956,43.243 C43.344,41.604 41.319,40.562 39.338,39.709 C37.358,38.854 35.412,38.155 33.906,37.401 C32.462,36.678 31.548,35.944 31.153,35.02 C31.023,33.451 31.034,32.223 31.042,30.741 C31.2,30.571 31.416,30.46 31.563,30.258 C31.889,29.809 32.202,29.255 32.493,28.658 C33,27.616 33.365,26.365 33.572,25.124 C33.946,24.93 34.343,24.882 34.651,24.491 C35.225,23.759 35.628,22.717 35.804,21.254 C35.961,19.951 35.526,19.092 34.985,18.426 C35.567,16.539 36.309,13.486 36.064,10.353 C35.931,8.64299999999997 35.491,6.93599999999998 34.465,5.51600000000002 C33.524,4.21600000000001 31.999,3.26499999999999 30.074,2.875 C28.825,1.25400000000002 26.571,0.64299999999997 23.973,0.64299999999997 C23.973,0.64299999999997 23.936,0.64299999999997 23.936,0.64299999999997 ZM23.973,3.024 C23.988,3.024 23.995,3.024 24.01,3.024 C26.407,3.03199999999998 27.958,3.73500000000001 28.4,4.51299999999998 C28.4,4.51299999999998 28.698,4.99599999999998 28.698,4.99599999999998 C28.698,4.99599999999998 29.256,5.06900000000002 29.256,5.06900000000002 C30.912,5.30000000000001 31.86,5.96800000000002 32.53,6.89299999999997 C33.199,7.81799999999998 33.572,9.11000000000001 33.683,10.539 C33.906,13.397 33.085,16.72 32.567,18.278 C32.567,18.278 32.269,19.209 32.269,19.209 C32.269,19.209 33.088,19.692 33.088,19.692 C33.037,19.66 33.542,20.006 33.423,20.994 C33.282,22.162 33.004,22.767 32.79,23.04 C32.576,23.314 32.465,23.299 32.455,23.3 C32.455,23.3 31.451,23.375 31.451,23.375 C31.451,23.375 31.339,24.343 31.339,24.343 C31.229,25.373 30.815,26.629 30.335,27.616 C30.095,28.11 29.846,28.544 29.628,28.844 C29.409,29.144 29.18,29.313 29.293,29.253 C29.293,29.253 28.661,29.588 28.661,29.588 C28.661,29.588 28.661,30.295 28.661,30.295 C28.661,32.02 28.591,33.433 28.772,35.429 C28.772,35.429 28.772,35.578 28.772,35.578 C28.772,35.578 28.847,35.726 28.847,35.726 C29.526,37.554 31.099,38.693 32.828,39.559 C34.556,40.426 36.544,41.06 38.408,41.866 C40.273,42.671 41.982,43.634 43.245,44.916 C44.249,45.938 44.881,47.285 45.217,48.972 C45.217,48.972 2.952,48.972 2.952,48.972 C3.28899999999999,47.286 3.91500000000002,45.938 4.92399999999998,44.916 C6.19200000000001,43.632 7.92599999999999,42.671 9.798,41.866 C11.67,41.06 13.644,40.426 15.378,39.559 C17.113,38.693 18.716,37.556 19.396,35.726 C19.396,35.726 19.434,35.578 19.434,35.578 C19.434,35.578 19.471,35.429 19.471,35.429 C19.652,33.434 19.583,32.02 19.583,30.295 C19.583,30.295 19.583,29.588 19.583,29.588 C19.583,29.588 18.95,29.253 18.95,29.253 C19.058,29.31 18.803,29.148 18.578,28.844 C18.353,28.541 18.081,28.11 17.834,27.616 C17.34,26.63 16.938,25.362 16.829,24.343 C16.829,24.343 16.718,23.375 16.718,23.375 C16.718,23.375 15.713,23.3 15.713,23.3 C15.704,23.299 15.592,23.314 15.378,23.04 C15.164,22.767 14.887,22.162 14.746,20.994 C14.628,20.006 15.132,19.66 15.081,19.692 C15.081,19.692 15.862,19.209 15.862,19.209 C15.862,19.209 15.639,18.353 15.639,18.353 C14.518,14.038 14.324,10.116 15.49,7.45100000000002 C16.653,4.79500000000002 19.022,3.12400000000002 23.973,3.024 ZM44.324,6.11200000000002 C42.055,6.11200000000002 39.91,6.53300000000002 37.962,7.30200000000002 C37.345,7.53800000000001 37.037,8.23000000000002 37.273,8.846 C37.51,9.46199999999999 38.201,9.77199999999999 38.817,9.53500000000003 C40.486,8.87599999999998 42.354,8.493 44.324,8.493 C51.658,8.493 57.42,13.584 57.42,19.656 C57.42,25.724 51.658,30.778 44.324,30.778 C43.071,30.778 41.86,30.649 40.715,30.369 C40.273,30.268 39.811,30.427 39.524,30.778 C39.524,30.778 38.178,32.312 35.99,33.011 C36.218,32.474 36.656,31.802 36.771,31.375 C37.046,30.355 37.069,29.588 37.069,29.588 C37.067,29.179 36.857,28.801 36.511,28.584 C36.23,28.406 35.954,28.221 35.692,28.026 C35.212,27.575 34.459,27.6 34.009,28.081 C33.56,28.559 33.584,29.313 34.064,29.764 C34.129,29.825 34.201,29.878 34.279,29.923 C34.385,30.003 34.504,30.069 34.613,30.146 C34.591,30.333 34.611,30.337 34.502,30.741 C34.291,31.523 33.864,32.644 32.976,33.904 C32.607,34.448 32.747,35.189 33.291,35.559 C33.484,35.689 33.711,35.761 33.944,35.764 C37.931,35.783 40.132,33.48 40.789,32.75 C41.935,32.986 43.1,33.16 44.324,33.16 C52.769,33.16 59.801,27.214 59.801,19.656 C59.801,12.094 52.769,6.11200000000002 44.324,6.11200000000002 Z "/>
</svg>
