<?xml version="1.0" encoding="utf-8"?>
<!DOCTYPE svg PUBLIC "-//W3C//DTD SVG 1.1//EN" "http://www.w3.org/Graphics/SVG/1.1/DTD/svg11.dtd">
<svg version="1.1" baseProfile="full"
 xmlns="http://www.w3.org/2000/svg"
 xmlns:xlink="http://www.w3.org/1999/xlink"
 xmlns:ev="http://www.w3.org/2001/xml-events" 
  height="24px" 
  width="87px" 
>
<path fill="rgb( 255, 255, 255 )"
 d="M86.638,13.296 C86.441,14.779 85.961,16.174 85.2,17.471 C84.4,18.824 83.4,19.961 82.201,20.881 C81.005,21.801 79.639,22.471 78.105,22.904 C76.611,23.326 75.101,23.453 73.578,23.287 C72.058,23.116 70.632,22.67 69.305,21.947 C67.925,21.195 66.771,20.232 65.845,19.062 C64.917,17.891 64.244,16.549 63.822,15.037 C63.427,13.63 63.329,12.179 63.53,10.689 C63.682,9.578 63.989,8.518 64.455,7.50299999999999 C64.455,7.50299999999999 67.322,8.86699999999999 67.322,8.86699999999999 C67.05,9.53100000000001 66.868,10.23 66.787,10.964 C66.659,12.06 66.748,13.154 67.053,14.242 C67.355,15.32 67.843,16.29 68.517,17.152 C69.19,18.017 70.007,18.719 70.97,19.263 C71.914,19.81 72.935,20.152 74.037,20.281 C75.138,20.408 76.224,20.324 77.296,20.023 C78.403,19.713 79.382,19.222 80.238,18.553 C81.094,17.883 81.795,17.05 82.341,16.062 C82.882,15.096 83.219,14.066 83.351,12.974 C83.484,11.884 83.402,10.801 83.1,9.72399999999999 C82.799,8.648 82.314,7.685 81.647,6.83699999999999 C80.976,5.988 80.139,5.27699999999999 79.135,4.703 C78.166,4.13999999999999 77.138,3.78999999999999 76.051,3.654 C74.965,3.52099999999999 73.879,3.607 72.799,3.91200000000001 C72.241,4.06999999999999 71.713,4.285 71.208,4.553 C71.208,4.553 78.137,7.62899999999999 78.137,7.62899999999999 C78.137,7.62899999999999 74.904,9.46199999999999 74.904,9.46199999999999 C74.904,9.46199999999999 79.389,14.704 79.389,14.704 C79.389,14.704 77.648,16.205 77.648,16.205 C77.648,16.205 73.163,10.964 73.163,10.964 C73.163,10.964 70.869,13.894 70.869,13.894 C70.869,13.894 67.948,3.10300000000001 67.948,3.10300000000001 C67.954,3.09899999999999 67.956,3.096 67.962,3.09200000000001 C69.163,2.16800000000001 70.511,1.49600000000001 72.005,1.07400000000001 C73.529,0.64599999999999 75.048,0.51499999999999 76.574,0.67500000000001 C78.094,0.84 79.522,1.28700000000001 80.851,2.01900000000001 C82.242,2.779 83.396,3.738 84.313,4.88800000000001 C85.231,6.041 85.902,7.386 86.33,8.91399999999999 C86.731,10.351 86.834,11.813 86.638,13.296 ZM53.63,13.473 C53.63,13.473 49.909,13.473 49.909,13.473 C49.909,13.473 49.909,22.914 49.909,22.914 C49.909,22.914 46.819,22.914 46.819,22.914 C46.819,22.914 46.819,0.97800000000001 46.819,0.97800000000001 C46.819,0.97800000000001 53.63,0.97800000000001 53.63,0.97800000000001 C55.91,0.97800000000001 57.69,1.529 58.969,2.63999999999999 C60.251,3.74799999999999 60.891,5.285 60.891,7.24799999999999 C60.891,9.20400000000001 60.251,10.728 58.969,11.826 C57.69,12.923 55.91,13.473 53.63,13.473 ZM56.604,4.62299999999999 C55.92,4.07400000000001 54.82,3.80000000000001 53.301,3.80000000000001 C53.301,3.80000000000001 49.909,3.80000000000001 49.909,3.80000000000001 C49.909,3.80000000000001 49.909,10.681 49.909,10.681 C49.909,10.681 53.301,10.681 53.301,10.681 C54.82,10.681 55.92,10.41 56.604,9.86699999999999 C57.286,9.322 57.626,8.453 57.626,7.24799999999999 C57.626,6.04900000000001 57.286,5.172 56.604,4.62299999999999 ZM37.999,5.78899999999999 C37.999,5.78899999999999 30.439,14.634 30.439,14.634 C30.439,14.634 22.896,5.78899999999999 22.896,5.78899999999999 C22.896,5.78899999999999 22.896,22.914 22.896,22.914 C22.896,22.914 19.866,22.914 19.866,22.914 C19.866,22.914 19.866,0.97800000000001 19.866,0.97800000000001 C19.866,0.97800000000001 22.582,0.97800000000001 22.582,0.97800000000001 C22.582,0.97800000000001 30.439,10.195 30.439,10.195 C30.439,10.195 38.312,0.97800000000001 38.312,0.97800000000001 C38.312,0.97800000000001 41.032,0.97800000000001 41.032,0.97800000000001 C41.032,0.97800000000001 41.032,22.914 41.032,22.914 C41.032,22.914 37.999,22.914 37.999,22.914 C37.999,22.914 37.999,5.78899999999999 37.999,5.78899999999999 ZM0.432,0.97800000000001 C0.432,0.97800000000001 13.568,0.97800000000001 13.568,0.97800000000001 C13.568,0.97800000000001 13.568,3.767 13.568,3.767 C13.568,3.767 3.52500000000001,3.767 3.52500000000001,3.767 C3.52500000000001,3.767 3.52500000000001,10.413 3.52500000000001,10.413 C3.52500000000001,10.413 13.288,10.413 13.288,10.413 C13.288,10.413 13.288,13.251 13.288,13.251 C13.288,13.251 3.52500000000001,13.251 3.52500000000001,13.251 C3.52500000000001,13.251 3.52500000000001,20.092 3.52500000000001,20.092 C3.52500000000001,20.092 13.897,20.092 13.897,20.092 C13.897,20.092 13.897,22.914 13.897,22.914 C13.897,22.914 0.432,22.914 0.432,22.914 C0.432,22.914 0.432,0.97800000000001 0.432,0.97800000000001 Z "/>
</svg>
