<?xml version="1.0" encoding="utf-8"?>
<!DOCTYPE svg PUBLIC "-//W3C//DTD SVG 1.1//EN" "http://www.w3.org/Graphics/SVG/1.1/DTD/svg11.dtd">
<svg version="1.1" baseProfile="full"
 xmlns="http://www.w3.org/2000/svg"
 xmlns:xlink="http://www.w3.org/1999/xlink"
 xmlns:ev="http://www.w3.org/2001/xml-events" 
  height="54px" 
  width="55px" 
>
<path fill="rgb( 51, 51, 51 )"
 d="M27.931,0.00599999999997 C25.071,0.05599999999998 23.056,1.267 22.228,3.12099999999998 C21.47,4.81999999999999 21.643,6.82400000000001 22.126,8.89100000000002 C21.8390000000001,9.30799999999999 21.639,9.84100000000001 21.721,10.517 C21.8150000000001,11.285 22.039,11.858 22.396,12.307 C22.539,12.485 22.7569999999999,12.489 22.936,12.605 C23.062,13.184 23.199,13.787 23.443,14.263 C23.601,14.574 23.763,14.846 23.949,15.092 C23.989,15.145 24.078,15.174 24.117,15.224 C24.122,15.816 24.096,16.339 24.05,16.948 C23.92,17.227 23.672,17.495 23.105,17.811 C22.496,18.15 21.652,18.492 20.7430000000001,18.938 C19.258,19.667 17.621,20.862 16.76,22.884 C16.408,22.661 15.84,22.424 15.748,22.221 C15.704,21.628 15.676,21.109 15.68,20.531 C15.72,20.478 15.809,20.451 15.849,20.397 C16.035,20.15 16.197,19.879 16.355,19.568 C16.599,19.091 16.735,18.489 16.862,17.911 C17.0410000000001,17.793 17.259,17.79 17.402,17.612 C17.759,17.165 17.982,16.589 18.077,15.821 C18.159,15.147 17.9589999999999,14.614 17.672,14.197 C18.155,12.128 18.327,10.127 17.5700000000001,8.42599999999999 C16.7430000000001,6.56900000000002 14.728,5.32900000000001 11.867,5.27699999999999 C10.64,5.27699999999999 9.53700000000003,5.64600000000002 8.76199999999994,6.40499999999997 C7.70799999999997,6.618 6.82899999999995,7.10899999999998 6.298,7.83100000000002 C5.71900000000005,8.618 5.49099999999999,9.53199999999998 5.42100000000005,10.416 C5.30200000000002,11.92 5.60699999999997,13.296 5.89300000000003,14.263 C5.63300000000004,14.674 5.44399999999996,15.18 5.52200000000005,15.821 C5.61599999999999,16.59 5.83900000000006,17.165 6.197,17.612 C6.33299999999997,17.782 6.53399999999999,17.797 6.70299999999997,17.911 C6.82600000000002,18.486 6.97400000000005,19.058 7.21000000000004,19.535 C7.36300000000006,19.845 7.53300000000002,20.15 7.71600000000001,20.397 C7.755,20.451 7.84500000000003,20.478 7.88499999999999,20.531 C7.88900000000001,21.121 7.86300000000006,21.645 7.81700000000001,22.253 C7.66600000000005,22.591 7.428,22.879 6.90599999999995,23.183 C6.34500000000003,23.509 5.54100000000005,23.819 4.71199999999999,24.244 C3.05499999999995,25.092 1.18200000000002,26.632 1,29.616 C0.99900000000002,29.638 0.99900000000002,29.66 1,29.682 C1,29.682 1,41.353 1,41.353 C1.005,41.42 1.01599999999996,41.487 1.03399999999999,41.553 C1.03399999999999,41.553 1.50300000000004,43.756 3.59900000000005,46.195 C5.69399999999996,48.633 9.41700000000003,51.403 15.849,52.958 C16.427,53.105 17.016,52.764 17.165,52.196 C17.188,52.109 17.199,52.02 17.199,51.931 C17.199,51.931 17.199,50.969 17.199,50.969 C17.199,50.969 17.199,50.902 17.199,50.902 C17.284,49.746 17.663,49.014 18.245,48.416 C18.84,47.806 19.691,47.337 20.641,46.923 C21.592,46.511 22.629,46.175 23.577,45.697 C24.526,45.22 25.487,44.549 25.9059999999999,43.442 C25.9400000000001,43.357 25.963,43.267 25.974,43.177 C26.073,42.097 26.0069999999999,41.356 26.0069999999999,40.457 C26.0170000000001,40.056 25.795,39.684 25.434,39.497 C25.612,39.588 25.5,39.53 25.4,39.397 C25.299,39.263 25.1849999999999,39.074 25.062,38.834 C24.817,38.352 24.606,37.736 24.556,37.275 C24.505,36.809 24.148,36.432 23.679,36.346 C23.677,36.343 23.681,36.316 23.679,36.314 C23.626,36.243 23.475,36.026 23.409,35.484 C23.386,35.301 23.447,35.221 23.476,35.186 C23.8339999999999,34.927 23.995,34.479 23.881,34.058 C23.293,31.835 23.256,29.84 23.814,28.587 C24.369,27.342 25.402,26.554 27.931,26.499 C27.95,26.499 27.946,26.498 27.965,26.499 C29.149,26.51 29.814,26.875 29.922,27.062 C30.0839999999999,27.346 30.37,27.543 30.698,27.592 C31.487,27.701 31.891,27.957 32.183,28.355 C32.476,28.753 32.634,29.345 32.689,30.046 C32.801,31.449 32.379,33.214 32.116,33.992 C31.97,34.434 32.134,34.919 32.521,35.186 C32.543,35.221 32.577,35.3 32.555,35.484 C32.486,36.047 32.366,36.287 32.318,36.346 C31.849,36.432 31.4930000000001,36.809 31.441,37.275 C31.39,37.744 31.207,38.352 30.968,38.834 C30.849,39.074 30.728,39.298 30.631,39.43 C30.582,39.496 30.515,39.551 30.496,39.563 C30.1950000000001,39.764 30.0170000000001,40.1 30.023,40.457 C30.023,41.355 29.958,42.097 30.057,43.177 C30.068,43.267 30.091,43.357 30.125,43.442 C30.544,44.548 31.508,45.22 32.453,45.697 C33.399,46.175 34.41,46.511 35.356,46.923 C36.302,47.337 37.16,47.806 37.752,48.416 C38.331,49.013 38.713,49.745 38.798,50.902 C38.798,50.902 38.798,50.969 38.798,50.969 C38.798,50.969 38.798,51.931 38.798,51.931 C38.798,52.518 39.2809999999999,52.991 39.878,52.991 C39.9690000000001,52.991 40.0599999999999,52.981 40.148,52.958 C46.58,51.403 50.303,48.633 52.398,46.195 C54.494,43.756 54.963,41.553 54.963,41.553 C54.981,41.487 54.992,41.42 54.997,41.353 C54.997,41.353 54.997,29.682 54.997,29.682 C54.998,29.66 54.998,29.638 54.997,29.616 C54.8150000000001,26.632 52.942,25.092 51.285,24.244 C50.456,23.819 49.652,23.509 49.091,23.183 C48.569,22.878 48.331,22.591 48.18,22.253 C48.134,21.645 48.1079999999999,21.121 48.112,20.531 C48.152,20.478 48.242,20.451 48.2809999999999,20.397 C48.4640000000001,20.15 48.634,19.846 48.787,19.535 C49.023,19.058 49.171,18.486 49.294,17.911 C49.463,17.797 49.664,17.782 49.8,17.612 C50.157,17.165 50.38,16.589 50.475,15.821 C50.553,15.18 50.365,14.674 50.104,14.263 C50.389,13.296 50.696,11.918 50.576,10.416 C50.506,9.53199999999998 50.278,8.618 49.699,7.83100000000002 C49.168,7.10899999999998 48.288,6.618 47.235,6.40499999999997 C46.46,5.64600000000002 45.357,5.27699999999999 44.13,5.27699999999999 C41.269,5.32900000000001 39.254,6.56900000000002 38.427,8.42599999999999 C37.67,10.127 37.842,12.128 38.325,14.197 C38.038,14.613 37.838,15.146 37.92,15.821 C38.014,16.59 38.2380000000001,17.165 38.595,17.612 C38.7380000000001,17.79 38.956,17.793 39.135,17.911 C39.2619999999999,18.489 39.399,19.091 39.6420000000001,19.568 C39.8,19.879 39.962,20.15 40.148,20.397 C40.188,20.451 40.277,20.478 40.317,20.531 C40.321,21.109 40.292,21.628 40.249,22.221 C40.157,22.424 39.5890000000001,22.661 39.237,22.884 C38.379,20.862 36.7670000000001,19.667 35.288,18.938 C34.3819999999999,18.492 33.533,18.15 32.926,17.811 C32.361,17.496 32.111,17.227 31.981,16.948 C31.9349999999999,16.339 31.909,15.816 31.913,15.224 C31.953,15.174 32.043,15.145 32.082,15.092 C32.265,14.844 32.4349999999999,14.541 32.588,14.229 C32.824,13.753 32.972,13.18 33.095,12.605 C33.264,12.491 33.465,12.476 33.601,12.307 C33.958,11.859 34.181,11.285 34.276,10.517 C34.354,9.875 34.165,9.36900000000003 33.904,8.95800000000003 C34.1900000000001,7.99200000000002 34.496,6.61500000000001 34.377,5.11200000000002 C34.307,4.226 34.079,3.31200000000001 33.5,2.52499999999998 C32.9690000000001,1.80399999999997 32.0890000000001,1.31200000000001 31.0359999999999,1.09899999999999 C30.258,0.34300000000002 29.151,0.00599999999997 27.931,0.00599999999997 ZM27.931,2.12700000000001 C27.951,2.12700000000001 27.9450000000001,2.12700000000001 27.965,2.12700000000001 C29.042,2.13900000000001 29.616,2.43700000000001 29.686,2.55799999999999 C29.855,2.851 30.1559999999999,3.048 30.496,3.089 C31.201,3.185 31.489,3.43900000000002 31.745,3.78399999999999 C32,4.13200000000001 32.2,4.64299999999997 32.251,5.27699999999999 C32.352,6.54599999999999 31.95,8.14999999999998 31.711,8.85899999999998 C31.574,9.28300000000002 31.723,9.74700000000001 32.082,10.018 C32.097,10.038 32.134,10.098 32.116,10.251 C32.056,10.736 31.917,10.93 31.88,10.98 C31.45,11.102 31.1420000000001,11.472 31.103,11.908 C31.058,12.327 30.846,12.866 30.631,13.301 C30.523,13.518 30.412,13.716 30.327,13.832 C30.242,13.947 30.133,13.999 30.327,13.899 C29.977,14.081 29.7569999999999,14.438 29.753,14.826 C29.753,15.649 29.729,16.349 29.821,17.346 C29.832,17.438 29.854,17.527 29.888,17.612 C30.26,18.594 31.047,19.222 31.846,19.668 C32.645,20.114 33.506,20.433 34.309,20.829 C35.9160000000001,21.619 37.22,22.477 37.617,24.708 C37.7190000000001,25.285 38.278,25.673 38.866,25.572 C38.947,25.558 39.026,25.535 39.102,25.505 C40.39,24.988 41.789,24.378 42.341,22.918 C42.376,22.832 42.398,22.743 42.409,22.652 C42.501,21.655 42.476,20.955 42.476,20.132 C42.4829999999999,19.775 42.305,19.438 42.004,19.236 C42.01,19.24 41.971,19.239 41.97,19.236 C41.9450000000001,19.218 41.9059999999999,19.186 41.869,19.137 C41.7809999999999,19.021 41.676,18.824 41.5650000000001,18.606 C41.343,18.172 41.1369999999999,17.623 41.093,17.214 C41.055,16.776 40.746,16.408 40.317,16.286 C40.28,16.236 40.14,16.041 40.08,15.556 C40.062,15.403 40.099,15.343 40.114,15.325 C40.4589999999999,15.071 40.6180000000001,14.642 40.519,14.229 C39.981,12.195 39.918,10.379 40.418,9.25599999999997 C40.914,8.14100000000002 41.83,7.44900000000001 44.13,7.39999999999998 C44.15,7.39999999999998 44.144,7.39999999999998 44.164,7.39999999999998 C45.231,7.41199999999998 45.811,7.73599999999999 45.885,7.86399999999998 C46.054,8.15699999999998 46.355,8.35300000000001 46.6950000000001,8.39499999999998 C47.4,8.49099999999999 47.688,8.74200000000002 47.944,9.08999999999998 C48.2,9.43900000000002 48.399,9.94799999999998 48.45,10.583 C48.551,11.852 48.149,13.456 47.91,14.164 C47.773,14.589 47.922,15.053 48.2809999999999,15.325 C48.296,15.343 48.3339999999999,15.402 48.3150000000001,15.556 C48.255,16.042 48.116,16.236 48.079,16.286 C47.649,16.408 47.341,16.776 47.302,17.214 C47.2569999999999,17.633 47.045,18.172 46.83,18.606 C46.722,18.824 46.611,19.022 46.526,19.137 C46.441,19.252 46.333,19.304 46.526,19.204 C46.176,19.386 45.956,19.742 45.953,20.132 C45.953,20.955 45.928,21.656 46.02,22.652 C46.0309999999999,22.743 46.053,22.832 46.088,22.918 C46.46,23.901 47.245,24.561 48.011,25.006 C48.777,25.452 49.563,25.738 50.272,26.1 C51.673,26.818 52.68,27.496 52.837,29.682 C52.8390000000001,29.709 52.835,29.72 52.837,29.748 C52.837,29.748 52.837,41.253 52.837,41.253 C52.808,41.392 52.467,42.831 50.745,44.834 C49.082,46.769 46.061,49.014 40.89,50.504 C40.724,49.027 40.14,47.817 39.304,46.958 C38.401,46.029 37.287,45.461 36.2329999999999,45.001 C35.179,44.54 34.175,44.183 33.432,43.807 C32.731,43.452 32.377,43.128 32.217,42.779 C32.164,42.08 32.178,41.503 32.183,40.823 C32.227,40.766 32.309,40.715 32.352,40.656 C32.547,40.392 32.727,40.095 32.8920000000001,39.762 C33.152,39.237 33.336,38.602 33.466,37.971 C33.651,37.85 33.857,37.827 34.006,37.64 C34.38,37.17 34.614,36.573 34.7140000000001,35.748 C34.8,35.057 34.5940000000001,34.524 34.309,34.091 C34.621,33.049 34.98,31.52 34.849,29.88 C34.774,28.929 34.521,27.966 33.904,27.128 C33.342,26.365 32.425,25.832 31.306,25.603 C30.491,24.755 29.287,24.376 27.931,24.376 C24.842,24.433 22.7089999999999,25.737 21.823,27.726 C21.005,29.559 21.187,31.767 21.721,34.026 C21.41,34.462 21.194,35.02 21.283,35.748 C21.383,36.574 21.617,37.203 21.991,37.672 C22.145,37.865 22.373,37.847 22.5650000000001,37.971 C22.699,38.605 22.838,39.272 23.105,39.795 C23.275,40.129 23.481,40.428 23.679,40.69 C23.7190000000001,40.744 23.807,40.772 23.847,40.823 C23.852,41.503 23.867,42.08 23.814,42.779 C23.655,43.125 23.302,43.452 22.599,43.807 C21.854,44.183 20.821,44.54 19.764,45.001 C18.706,45.461 17.599,46.029 16.693,46.958 C15.854,47.817 15.274,49.026 15.107,50.504 C9.93600000000004,49.014 6.91499999999996,46.769 5.25199999999995,44.834 C3.53099999999995,42.831 3.18899999999996,41.392 3.15999999999997,41.253 C3.15999999999997,41.253 3.15999999999997,29.748 3.15999999999997,29.748 C3.15999999999997,29.748 3.15999999999997,29.682 3.15999999999997,29.682 C3.31700000000001,27.496 4.32399999999996,26.818 5.72500000000002,26.1 C6.43399999999997,25.738 7.22000000000003,25.452 7.98599999999999,25.006 C8.75199999999995,24.561 9.53700000000003,23.901 9.90899999999999,22.918 C9.94399999999996,22.832 9.96600000000001,22.743 9.97699999999998,22.652 C10.069,21.655 10.045,20.955 10.045,20.132 C10.051,19.775 9.87300000000005,19.438 9.572,19.236 C9.57600000000002,19.241 9.54200000000003,19.239 9.53800000000001,19.236 C9.51800000000003,19.217 9.50599999999997,19.185 9.471,19.137 C9.38499999999999,19.022 9.27499999999998,18.824 9.16700000000003,18.606 C8.952,18.172 8.74000000000001,17.632 8.69500000000005,17.214 C8.65599999999995,16.776 8.34799999999996,16.408 7.91800000000001,16.286 C7.88099999999997,16.236 7.74099999999999,16.041 7.68200000000002,15.556 C7.66399999999999,15.402 7.70100000000002,15.343 7.71600000000001,15.325 C8.07500000000005,15.053 8.22400000000005,14.589 8.08699999999999,14.164 C7.84799999999996,13.456 7.44600000000003,11.852 7.54700000000003,10.583 C7.59799999999996,9.94799999999998 7.76400000000001,9.43900000000002 8.01999999999998,9.08999999999998 C8.27599999999995,8.74200000000002 8.59699999999998,8.49099999999999 9.30200000000002,8.39499999999998 C9.64200000000005,8.35300000000001 9.94299999999998,8.15699999999998 10.112,7.86399999999998 C10.186,7.73599999999999 10.766,7.41199999999998 11.833,7.39999999999998 C11.848,7.39999999999998 11.852,7.399 11.867,7.39999999999998 C14.167,7.44900000000001 15.083,8.14100000000002 15.579,9.25599999999997 C16.079,10.379 16.016,12.195 15.478,14.229 C15.371,14.659 15.546,15.108 15.917,15.356 C15.932,15.396 15.93,15.449 15.917,15.556 C15.857,16.042 15.718,16.236 15.68,16.286 C15.251,16.408 14.943,16.776 14.904,17.214 C14.86,17.624 14.653,18.172 14.432,18.606 C14.321,18.824 14.216,19.021 14.128,19.137 C14.04,19.255 13.905,19.301 14.0940000000001,19.204 C13.744,19.386 13.524,19.742 13.521,20.132 C13.521,20.956 13.495,21.655 13.588,22.652 C13.599,22.743 13.621,22.832 13.6559999999999,22.918 C14.208,24.38 15.607,24.988 16.895,25.505 C17.4450000000001,25.731 18.079,25.48 18.311,24.939 C18.343,24.865 18.366,24.788 18.38,24.708 C18.779,22.477 20.073,21.619 21.688,20.829 C22.495,20.433 23.383,20.114 24.1849999999999,19.668 C24.987,19.222 25.771,18.594 26.1420000000001,17.612 C26.176,17.527 26.199,17.438 26.21,17.346 C26.301,16.349 26.277,15.649 26.277,14.826 C26.283,14.469 26.106,14.133 25.805,13.931 C25.811,13.937 25.772,13.932 25.771,13.931 C25.745,13.913 25.707,13.882 25.67,13.832 C25.581,13.715 25.477,13.518 25.366,13.301 C25.144,12.866 24.938,12.318 24.894,11.908 C24.855,11.472 24.547,11.102 24.117,10.98 C24.08,10.93 23.941,10.736 23.881,10.251 C23.8630000000001,10.098 23.9,10.038 23.915,10.018 C24.26,9.76600000000002 24.419,9.33699999999999 24.3200000000001,8.92500000000001 C23.782,6.88999999999999 23.72,5.10199999999998 24.2190000000001,3.98500000000001 C24.715,2.87400000000002 25.63,2.17700000000002 27.931,2.12700000000001 Z "/>
</svg>
