<?xml version="1.0" encoding="utf-8"?>
<!DOCTYPE svg PUBLIC "-//W3C//DTD SVG 1.1//EN" "http://www.w3.org/Graphics/SVG/1.1/DTD/svg11.dtd">
<svg version="1.1" baseProfile="full"
 xmlns="http://www.w3.org/2000/svg"
 xmlns:xlink="http://www.w3.org/1999/xlink"
 xmlns:ev="http://www.w3.org/2001/xml-events" 
  height="52px" 
  width="55px" 
>
<path fill="rgb( 51, 51, 51 )"
 d="M21.179,0 C10.157,0 1.001,8.01999999999998 1.001,18.096 C1.001,22.972 3.172,27.391 6.642,30.642 C6.133,32.158 5.05,33.368 3.888,34.321 C3.242,34.851 2.612,35.307 2.096,35.76 C1.838,35.985 1.604,36.185 1.399,36.495 C1.194,36.807 0.99,37.339 1.133,37.867 C1.133,37.867 1.266,38.268 1.266,38.268 C1.266,38.268 1.631,38.503 1.631,38.503 C2.734,39.132 4.074,39.239 5.481,39.137 C6.887,39.037 8.405,38.682 9.895,38.268 C11.95,37.698 13.706,37.022 15.172,36.428 C18.092,43.237 25.421,47.971 33.923,47.971 C35.394,47.971 36.798,47.734 38.104,47.534 C39.587,48.213 42.234,49.327 45.107,50.11 C48.089,50.923 51.139,51.533 53.337,50.278 C53.337,50.278 53.736,50.044 53.736,50.044 C53.736,50.044 53.835,49.642 53.835,49.642 C53.977,49.118 53.801,48.617 53.603,48.303 C53.405,47.99 53.193,47.767 52.939,47.534 C52.432,47.071 51.79,46.602 51.147,46.063 C49.99,45.093 48.905,43.872 48.359,42.383 C51.818,39.134 54.001,34.736 54.001,29.873 C54.001,21.93 48.259,15.156 40.394,12.745 C37.861,5.32100000000003 30.162,0 21.179,0 ZM21.179,2.13999999999999 C31.185,2.13999999999999 39.133,9.32600000000002 39.133,18.096 C39.133,26.861 31.085,34.053 21.079,34.053 C19.643,34.053 18.232,33.946 16.964,33.651 C16.964,33.651 16.632,33.552 16.632,33.552 C16.632,33.552 16.3,33.686 16.3,33.686 C16.176,33.739 15.916,33.858 15.769,33.92 C15.746,33.929 15.693,33.909 15.669,33.92 C15.42,33.938 15.185,34.045 15.006,34.221 C13.503,34.843 11.523,35.62 9.331,36.227 C7.926,36.617 6.504,36.911 5.315,36.997 C4.788,37.035 4.567,36.876 4.153,36.83 C4.494,36.562 4.781,36.35 5.215,35.994 C6.632,34.832 8.372,33.151 8.932,30.642 C8.932,30.642 9.065,30.006 9.065,30.006 C9.065,30.006 8.6,29.572 8.6,29.572 C5.201,26.649 3.125,22.581 3.125,18.096 C3.125,9.334 11.173,2.13999999999999 21.179,2.13999999999999 ZM40.992,15.187 C41.191,15.263 41.394,15.339 41.589,15.421 C41.454,15.6 41.357,15.812 41.357,16.056 C41.357,16.647 41.832,17.127 42.419,17.127 C42.908,17.127 43.291,16.777 43.414,16.323 C45.769,17.635 47.735,19.413 49.189,21.508 C49.062,21.454 48.937,21.408 48.791,21.408 C48.204,21.408 47.729,21.888 47.729,22.479 C47.729,23.07 48.204,23.549 48.791,23.549 C49.354,23.549 49.817,23.105 49.853,22.546 C50.341,23.384 50.764,24.277 51.081,25.189 C50.994,25.343 50.915,25.501 50.915,25.69 C50.915,26.092 51.155,26.41 51.479,26.593 C51.732,27.658 51.877,28.748 51.877,29.873 C51.877,30.276 51.844,30.68 51.811,31.077 C51.309,31.162 50.915,31.583 50.915,32.114 C50.915,32.53 51.167,32.873 51.512,33.051 C50.783,36.261 48.976,39.131 46.401,41.346 C46.401,41.346 45.903,41.78 45.903,41.78 C45.903,41.78 46.069,42.449 46.069,42.449 C46.608,44.567 47.93,46.072 49.189,47.2 C49.062,47.145 48.937,47.099 48.791,47.099 C48.204,47.099 47.729,47.58 47.729,48.171 C47.729,48.28 47.764,48.371 47.795,48.471 C47.12,48.377 46.423,48.241 45.671,48.036 C43.399,47.417 41.183,46.534 39.697,45.897 C40.043,45.718 40.295,45.377 40.295,44.959 C40.295,44.368 39.819,43.888 39.233,43.888 C38.646,43.888 38.171,44.368 38.171,44.959 C38.171,45.107 38.216,45.232 38.27,45.36 C38.27,45.36 38.104,45.393 38.104,45.393 C36.732,45.606 35.308,45.828 33.923,45.828 C33.768,45.828 33.612,45.831 33.458,45.828 C33.734,45.636 33.923,45.323 33.923,44.959 C33.923,44.368 33.447,43.888 32.861,43.888 C32.274,43.888 31.799,44.368 31.799,44.959 C31.799,45.254 31.905,45.534 32.097,45.728 C30.5,45.587 28.962,45.277 27.517,44.792 C27.433,44.286 27.015,43.888 26.489,43.888 C26.237,43.888 26.007,43.976 25.825,44.123 C24.962,43.738 24.144,43.313 23.369,42.818 C23.924,42.783 24.365,42.315 24.365,41.748 C24.365,41.157 23.889,40.677 23.303,40.677 C22.716,40.677 22.241,41.157 22.241,41.748 C22.241,41.868 22.27,41.973 22.307,42.083 C21.228,41.276 20.257,40.343 19.42,39.338 C19.606,39.502 19.849,39.607 20.117,39.607 C20.703,39.607 21.179,39.127 21.179,38.536 C21.179,37.945 20.703,37.466 20.117,37.466 C19.53,37.466 19.055,37.945 19.055,38.536 C19.055,38.779 19.152,38.992 19.287,39.172 C18.548,38.262 17.903,37.296 17.395,36.261 C17.561,36.176 17.692,36.049 17.793,35.892 C18.88,36.067 19.985,36.194 21.079,36.194 C21.579,36.194 22.081,36.16 22.572,36.127 C22.762,36.302 23.025,36.395 23.303,36.395 C23.648,36.395 23.938,36.217 24.132,35.96 C25.748,35.738 27.307,35.37 28.779,34.823 C28.692,34.978 28.613,35.134 28.613,35.325 C28.613,35.916 29.088,36.395 29.675,36.395 C30.261,36.395 30.737,35.916 30.737,35.325 C30.737,34.832 30.39,34.445 29.94,34.321 C30.793,33.945 31.615,33.526 32.396,33.051 C32.54,33.124 32.688,33.184 32.861,33.184 C33.447,33.184 33.923,32.705 33.923,32.114 C33.923,32.086 33.891,32.072 33.89,32.046 C34.771,31.395 35.598,30.68 36.345,29.906 C36.711,29.791 36.963,29.485 37.042,29.103 C37.708,28.328 38.346,27.528 38.868,26.66 C38.987,26.707 39.098,26.761 39.233,26.761 C39.819,26.761 40.295,26.282 40.295,25.69 C40.295,25.315 40.086,25.012 39.797,24.82 C40.724,22.746 41.257,20.478 41.257,18.096 C41.257,17.106 41.16,16.131 40.992,15.187 ZM45.605,18.197 C45.018,18.197 44.543,18.676 44.543,19.268 C44.543,19.86 45.018,20.338 45.605,20.338 C46.191,20.338 46.667,19.86 46.667,19.268 C46.667,18.676 46.191,18.197 45.605,18.197 ZM42.419,21.408 C41.832,21.408 41.357,21.888 41.357,22.479 C41.357,23.07 41.832,23.549 42.419,23.549 C43.005,23.549 43.481,23.07 43.481,22.479 C43.481,21.888 43.005,21.408 42.419,21.408 ZM45.605,24.62 C45.018,24.62 44.543,25.1 44.543,25.69 C44.543,26.282 45.018,26.761 45.605,26.761 C46.191,26.761 46.667,26.282 46.667,25.69 C46.667,25.1 46.191,24.62 45.605,24.62 ZM42.419,27.831 C41.832,27.831 41.357,28.311 41.357,28.902 C41.357,29.493 41.832,29.972 42.419,29.972 C43.005,29.972 43.481,29.493 43.481,28.902 C43.481,28.311 43.005,27.831 42.419,27.831 ZM48.791,27.831 C48.204,27.831 47.729,28.311 47.729,28.902 C47.729,29.493 48.204,29.972 48.791,29.972 C49.377,29.972 49.853,29.493 49.853,28.902 C49.853,28.311 49.377,27.831 48.791,27.831 ZM39.233,31.043 C38.646,31.043 38.171,31.522 38.171,32.114 C38.171,32.705 38.646,33.184 39.233,33.184 C39.819,33.184 40.295,32.705 40.295,32.114 C40.295,31.522 39.819,31.043 39.233,31.043 ZM45.605,31.043 C45.018,31.043 44.543,31.522 44.543,32.114 C44.543,32.705 45.018,33.184 45.605,33.184 C46.191,33.184 46.667,32.705 46.667,32.114 C46.667,31.522 46.191,31.043 45.605,31.043 ZM36.047,34.254 C35.46,34.254 34.985,34.734 34.985,35.325 C34.985,35.916 35.46,36.395 36.047,36.395 C36.633,36.395 37.109,35.916 37.109,35.325 C37.109,34.734 36.633,34.254 36.047,34.254 ZM42.419,34.254 C41.832,34.254 41.357,34.734 41.357,35.325 C41.357,35.916 41.832,36.395 42.419,36.395 C43.005,36.395 43.481,35.916 43.481,35.325 C43.481,34.734 43.005,34.254 42.419,34.254 ZM48.791,34.254 C48.204,34.254 47.729,34.734 47.729,35.325 C47.729,35.916 48.204,36.395 48.791,36.395 C49.377,36.395 49.853,35.916 49.853,35.325 C49.853,34.734 49.377,34.254 48.791,34.254 ZM26.489,37.466 C25.902,37.466 25.427,37.945 25.427,38.536 C25.427,39.127 25.902,39.607 26.489,39.607 C27.075,39.607 27.551,39.127 27.551,38.536 C27.551,37.945 27.075,37.466 26.489,37.466 ZM32.861,37.466 C32.274,37.466 31.799,37.945 31.799,38.536 C31.799,39.127 32.274,39.607 32.861,39.607 C33.447,39.607 33.923,39.127 33.923,38.536 C33.923,37.945 33.447,37.466 32.861,37.466 ZM39.233,37.466 C38.646,37.466 38.171,37.945 38.171,38.536 C38.171,39.127 38.646,39.607 39.233,39.607 C39.819,39.607 40.295,39.127 40.295,38.536 C40.295,37.945 39.819,37.466 39.233,37.466 ZM45.605,37.466 C45.018,37.466 44.543,37.945 44.543,38.536 C44.543,39.127 45.018,39.607 45.605,39.607 C46.191,39.607 46.667,39.127 46.667,38.536 C46.667,37.945 46.191,37.466 45.605,37.466 ZM29.675,40.677 C29.088,40.677 28.613,41.157 28.613,41.748 C28.613,42.339 29.088,42.818 29.675,42.818 C30.261,42.818 30.737,42.339 30.737,41.748 C30.737,41.157 30.261,40.677 29.675,40.677 ZM36.047,40.677 C35.46,40.677 34.985,41.157 34.985,41.748 C34.985,42.339 35.46,42.818 36.047,42.818 C36.633,42.818 37.109,42.339 37.109,41.748 C37.109,41.157 36.633,40.677 36.047,40.677 ZM42.419,40.677 C41.832,40.677 41.357,41.157 41.357,41.748 C41.357,42.339 41.832,42.818 42.419,42.818 C43.005,42.818 43.481,42.339 43.481,41.748 C43.481,41.157 43.005,40.677 42.419,40.677 ZM45.605,43.888 C45.018,43.888 44.543,44.368 44.543,44.959 C44.543,45.551 45.018,46.03 45.605,46.03 C46.191,46.03 46.667,45.551 46.667,44.959 C46.667,44.368 46.191,43.888 45.605,43.888 ZM49.654,47.568 C49.699,47.606 49.742,47.664 49.786,47.701 C50.225,48.07 50.543,48.297 50.882,48.571 C50.526,48.605 50.135,48.607 49.72,48.605 C49.785,48.466 49.853,48.334 49.853,48.171 C49.853,47.943 49.773,47.741 49.654,47.568 Z "/>
</svg>
