<?xml version="1.0" encoding="utf-8"?>
<!DOCTYPE svg PUBLIC "-//W3C//DTD SVG 1.1//EN" "http://www.w3.org/Graphics/SVG/1.1/DTD/svg11.dtd">
<svg version="1.1" baseProfile="full"
 xmlns="http://www.w3.org/2000/svg"
 xmlns:xlink="http://www.w3.org/1999/xlink"
 xmlns:ev="http://www.w3.org/2001/xml-events" 
  height="9px" 
  width="60px" 
>
<path fill="rgb( 51, 51, 51 )"
 d="M60,5 C60,5 1.708,5 1.708,5 C1.708,5 4.278,7.56999999999999 4.278,7.56999999999999 C4.278,7.56999999999999 3.57,8.277 3.57,8.277 C3.57,8.277 0.293,5 0.293,5 C0.293,5 0,5 0,5 C0,5 0,4 0,4 C0,4 0.293,4 0.293,4 C0.293,4 3.57,0.722 3.57,0.722 C3.57,0.722 4.278,1.429 4.278,1.429 C4.278,1.429 1.707,4 1.707,4 C1.707,4 60,4 60,4 C60,4 60,5 60,5 Z "/>
</svg>
